<svg xmlns="http://www.w3.org/2000/svg" xmlns:xlink="http://www.w3.org/1999/xlink" contentStyleType="text/css" data-diagram-type="ACTIVITY" height="1355px" preserveAspectRatio="none" style="width:3425px;height:1355px;background:#FEFEFE;" version="1.1" viewBox="0 0 3425 1355" width="3425px" zoomAndPan="magnify"><title>Proces obs&#322;ugi kontrakt&#243;w z kontrahentami</title><defs/><g><rect fill="#FEFEFE" height="1355" style="stroke:none;stroke-width:1;" width="3425" x="0" y="0"/><g class="title" data-source-line="14"><text fill="#000000" font-family="Arial" font-size="14" font-weight="bold" lengthAdjust="spacing" textLength="345.8984" x="1538.1948" y="32.9951">Proces obs&#322;ugi kontrakt&#243;w z kontrahentami</text></g><rect fill="none" height="20.9531" style="stroke:none;stroke-width:1;" width="3392.2881" x="15" y="50.042"/><rect fill="#E3F2FD" height="1292.9883" style="stroke:#E3F2FD;stroke-width:1;" width="602.8413" x="15" y="50.042"/><ellipse cx="86.7227" cy="85.9951" fill="#222222" rx="10" ry="10" style="stroke:#222222;stroke-width:1;"/><path d="M172.4453,105.9951 L172.4453,159.96 L152.4453,163.96 L172.4453,167.96 L172.4453,221.9248 A0,0 0 0 0 172.4453,221.9248 L612.8413,221.9248 A0,0 0 0 0 612.8413,221.9248 L612.8413,115.9951 L602.8413,105.9951 L172.4453,105.9951 A0,0 0 0 0 172.4453,105.9951" fill="#FFFDE7" style="stroke:#FBC02D;stroke-width:0.5;"/><path d="M602.8413,105.9951 L602.8413,115.9951 L612.8413,115.9951 L602.8413,105.9951" fill="#FFFDE7" style="stroke:#FBC02D;stroke-width:0.5;"/><text fill="#000000" font-family="Arial" font-size="13" font-weight="bold" lengthAdjust="spacing" textLength="97.9761" x="178.4453" y="123.062">Dane klienta:</text><text fill="#000000" font-family="Arial" font-size="13" lengthAdjust="spacing" textLength="93.8184" x="178.4453" y="138.1948">&#8226; nazwa_firmy</text><text fill="#000000" font-family="Arial" font-size="13" lengthAdjust="spacing" textLength="33.1982" x="178.4453" y="153.3276">&#8226; NIP</text><text fill="#000000" font-family="Arial" font-size="13" lengthAdjust="spacing" textLength="199.1641" x="178.4453" y="168.4604">&#8226; adres (ulica, nr, kod, miasto)</text><text fill="#000000" font-family="Arial" font-size="13" lengthAdjust="spacing" textLength="419.396" x="178.4453" y="183.5933">&#8226; osoba kontaktowa (telefon, email, imie, nazwisko, stanowisko)</text><text fill="#000000" font-family="Arial" font-size="13" lengthAdjust="spacing" textLength="188.043" x="178.4453" y="198.7261">&#8226; status: prospekt/w_trakcie/</text><text fill="#000000" font-family="Arial" font-size="13" lengthAdjust="spacing" textLength="157.8662" x="186.71" y="213.8589">aktywny/nieaktywny/vip</text><rect fill="#E3F2FD" height="33.9688" rx="12.5" ry="12.5" style="stroke:#1565C0;stroke-width:0.5;" width="131.4453" x="21" y="146.9756"/><text fill="#000000" font-family="Arial" font-size="12" lengthAdjust="spacing" textLength="111.4453" x="31" y="168.1143">Rejestracja klienta</text><line style="stroke:#000000;stroke-width:1.5;" x1="15" x2="15" y1="50.042" y2="1343.0303"/><rect fill="#FFF3E0" height="1292.9883" style="stroke:#FFF3E0;stroke-width:1;" width="585.3711" x="617.8413" y="50.042"/><path d="M794.1948,231.9248 L794.1948,308.5889 L774.1948,312.5889 L794.1948,316.5889 L794.1948,393.2529 A0,0 0 0 0 794.1948,393.2529 L1198.2124,393.2529 A0,0 0 0 0 1198.2124,393.2529 L1198.2124,241.9248 L1188.2124,231.9248 L794.1948,231.9248 A0,0 0 0 0 794.1948,231.9248" fill="#FFFDE7" style="stroke:#FBC02D;stroke-width:0.5;"/><path d="M1188.2124,231.9248 L1188.2124,241.9248 L1198.2124,241.9248 L1188.2124,231.9248" fill="#FFFDE7" style="stroke:#FBC02D;stroke-width:0.5;"/><text fill="#000000" font-family="Arial" font-size="13" font-weight="bold" lengthAdjust="spacing" textLength="118.2822" x="800.1948" y="248.9917">Dane zdarzenia:</text><text fill="#000000" font-family="Arial" font-size="13" lengthAdjust="spacing" textLength="201.3159" x="800.1948" y="264.1245">&#8226; typ: telefon/wizyta/follow-up/</text><text fill="#000000" font-family="Arial" font-size="13" lengthAdjust="spacing" textLength="206.1338" x="808.4595" y="279.2573">telefon_po_dostawie/newsletter</text><text fill="#000000" font-family="Arial" font-size="13" lengthAdjust="spacing" textLength="383.0176" x="800.1948" y="294.3901">&#8226; status zdarzenia (zaplanowane, odwo&#322;ane, zrealizowane)</text><text fill="#000000" font-family="Arial" font-size="13" lengthAdjust="spacing" textLength="118.4092" x="800.1948" y="309.5229">&#8226; data_planowana</text><text fill="#000000" font-family="Arial" font-size="13" lengthAdjust="spacing" textLength="38.3906" x="800.1948" y="324.6558">&#8226; opis</text><text fill="#000000" font-family="Arial" font-size="13" lengthAdjust="spacing" textLength="57.2939" x="800.1948" y="339.7886">&#8226; notatki</text><text fill="#000000" font-family="Arial" font-size="13" lengthAdjust="spacing" textLength="123.2842" x="800.1948" y="354.9214">&#8226; przedstawiciel_id</text><text fill="#000000" font-family="Arial" font-size="13" lengthAdjust="spacing" textLength="66.2505" x="800.1948" y="370.0542">&#8226; klient_id</text><text fill="#000000" font-family="Arial" font-size="13" lengthAdjust="spacing" textLength="308.0137" x="800.1948" y="385.187">&#8226; inne opcjonalne pola (umowa, data realizacji)</text><rect fill="#E3F2FD" height="33.9688" rx="12.5" ry="12.5" style="stroke:#1565C0;stroke-width:0.5;" width="150.3535" x="623.8413" y="295.6045"/><text fill="#000000" font-family="Arial" font-size="12" lengthAdjust="spacing" textLength="130.3535" x="633.8413" y="316.7432">Planowanie zdarzenia</text><rect fill="#E3F2FD" height="33.9688" rx="12.5" ry="12.5" style="stroke:#1565C0;stroke-width:0.5;" width="142.6719" x="627.6821" y="413.2529"/><text fill="#000000" font-family="Arial" font-size="12" lengthAdjust="spacing" textLength="122.6719" x="637.6821" y="434.3916">Realizacja zdarzenia</text><rect fill="#E3F2FD" height="33.9688" rx="12.5" ry="12.5" style="stroke:#1565C0;stroke-width:0.5;" width="146.8848" x="625.5757" y="515.624"/><text fill="#000000" font-family="Arial" font-size="12" lengthAdjust="spacing" textLength="126.8848" x="635.5757" y="536.7627">Ponowne planowanie</text><polygon fill="#E3F2FD" points="645.7183,467.2217,752.3179,467.2217,764.3179,479.2217,752.3179,491.2217,645.7183,491.2217,633.7183,479.2217,645.7183,467.2217" style="stroke:#1565C0;stroke-width:0.5;"/><text fill="#000000" font-family="Arial" font-size="11" lengthAdjust="spacing" textLength="53.0449" x="703.0181" y="501.4321">odwo&#322;ane</text><text fill="#000000" font-family="Arial" font-size="12" lengthAdjust="spacing" textLength="106.5996" x="645.7183" y="483.376">Status zdarzenia?</text><text fill="#000000" font-family="Arial" font-size="11" lengthAdjust="spacing" textLength="71.8975" x="764.3179" y="476.6274">zrealizowane</text><line style="stroke:#000000;stroke-width:1.5;" x1="617.8413" x2="617.8413" y1="50.042" y2="1343.0303"/><rect fill="#E8F5E9" height="1292.9883" style="stroke:#E8F5E9;stroke-width:1;" width="429.877" x="1203.2124" y="50.042"/><path d="M1382.0063,589.9951 L1382.0063,643.96 L1362.0063,647.96 L1382.0063,651.96 L1382.0063,705.9248 A0,0 0 0 0 1382.0063,705.9248 L1584.0098,705.9248 A0,0 0 0 0 1584.0098,705.9248 L1584.0098,599.9951 L1574.0098,589.9951 L1382.0063,589.9951 A0,0 0 0 0 1382.0063,589.9951" fill="#FFFDE7" style="stroke:#FBC02D;stroke-width:0.5;"/><path d="M1574.0098,589.9951 L1574.0098,599.9951 L1584.0098,599.9951 L1574.0098,589.9951" fill="#FFFDE7" style="stroke:#FBC02D;stroke-width:0.5;"/><text fill="#000000" font-family="Arial" font-size="13" font-weight="bold" lengthAdjust="spacing" textLength="99.5757" x="1388.0063" y="607.062">Dane umowy:</text><text fill="#000000" font-family="Arial" font-size="13" lengthAdjust="spacing" textLength="181.0034" x="1388.0063" y="622.1948">&#8226; typ: ramowa/jednorazowa</text><text fill="#000000" font-family="Arial" font-size="13" lengthAdjust="spacing" textLength="63.7876" x="1388.0063" y="637.3276">&#8226; data_od</text><text fill="#000000" font-family="Arial" font-size="13" lengthAdjust="spacing" textLength="149.0366" x="1388.0063" y="652.4604">&#8226; data_do (opcjonalne)</text><text fill="#000000" font-family="Arial" font-size="13" lengthAdjust="spacing" textLength="66.2505" x="1388.0063" y="667.5933">&#8226; klient_id</text><text fill="#000000" font-family="Arial" font-size="13" lengthAdjust="spacing" textLength="123.2842" x="1388.0063" y="682.7261">&#8226; przedstawiciel_id</text><text fill="#000000" font-family="Arial" font-size="13" lengthAdjust="spacing" textLength="116.3081" x="1388.0063" y="697.8589">&#8226; status: Aktywna</text><rect fill="#E3F2FD" height="33.9688" rx="12.5" ry="12.5" style="stroke:#1565C0;stroke-width:0.5;" width="134.9492" x="1227.0571" y="630.9756"/><text fill="#000000" font-family="Arial" font-size="12" lengthAdjust="spacing" textLength="114.9492" x="1237.0571" y="652.1143">Utworzenie umowy</text><path d="M1395.8726,715.9248 L1395.8726,762.3232 L1375.8726,766.3232 L1395.8726,770.3232 L1395.8726,816.7217 A0,0 0 0 0 1395.8726,816.7217 L1566.5503,816.7217 A0,0 0 0 0 1566.5503,816.7217 L1566.5503,725.9248 L1556.5503,715.9248 L1395.8726,715.9248 A0,0 0 0 0 1395.8726,715.9248" fill="#FFFDE7" style="stroke:#FBC02D;stroke-width:0.5;"/><path d="M1556.5503,715.9248 L1556.5503,725.9248 L1566.5503,725.9248 L1556.5503,715.9248" fill="#FFFDE7" style="stroke:#FBC02D;stroke-width:0.5;"/><text fill="#000000" font-family="Arial" font-size="13" font-weight="bold" lengthAdjust="spacing" textLength="98.2554" x="1401.8726" y="732.9917">Dane pozycji:</text><text fill="#000000" font-family="Arial" font-size="13" lengthAdjust="spacing" textLength="80.8311" x="1401.8726" y="748.1245">&#8226; produkt_id</text><text fill="#000000" font-family="Arial" font-size="13" lengthAdjust="spacing" textLength="40.8979" x="1401.8726" y="763.2573">&#8226; ilo&#347;&#263;</text><text fill="#000000" font-family="Arial" font-size="13" lengthAdjust="spacing" textLength="131.6567" x="1401.8726" y="778.3901">&#8226; cena_jednostkowa</text><text fill="#000000" font-family="Arial" font-size="13" lengthAdjust="spacing" textLength="140.8799" x="1401.8726" y="793.5229">&#9472;&#9472;&#9472;&#9472;&#9472;&#9472;&#9472;&#9472;&#9472;&#9472;&#9472;&#9472;&#9472;&#9472;&#9472;&#9472;&#9472;&#9472;</text><text fill="#000000" font-family="Arial" font-size="13" lengthAdjust="spacing" textLength="149.6777" x="1401.8726" y="808.6558">warto&#347;&#263; = ilo&#347;&#263; &#215; cena</text><rect fill="#E3F2FD" height="33.9688" rx="12.5" ry="12.5" style="stroke:#1565C0;stroke-width:0.5;" width="162.6816" x="1213.1909" y="749.3389"/><text fill="#000000" font-family="Arial" font-size="12" lengthAdjust="spacing" textLength="142.6816" x="1223.1909" y="770.4775">Dodanie pozycji umowy</text><path d="M1399.8511,832.9912 L1399.8511,856.6904 L1379.8511,860.6904 L1399.8511,864.6904 L1399.8511,888.3896 A0,0 0 0 0 1399.8511,888.3896 L1628.0894,888.3896 A0,0 0 0 0 1628.0894,888.3896 L1628.0894,842.9912 L1618.0894,832.9912 L1399.8511,832.9912 A0,0 0 0 0 1399.8511,832.9912" fill="#FFFDE7" style="stroke:#FBC02D;stroke-width:0.5;"/><path d="M1618.0894,832.9912 L1618.0894,842.9912 L1628.0894,842.9912 L1618.0894,832.9912" fill="#FFFDE7" style="stroke:#FBC02D;stroke-width:0.5;"/><text fill="#000000" font-family="Arial" font-size="13" font-weight="bold" lengthAdjust="spacing" textLength="91.9966" x="1405.8511" y="850.0581">Trigger SQL:</text><text fill="#000000" font-family="Arial" font-size="13" lengthAdjust="spacing" textLength="119.6216" x="1405.8511" y="865.1909">wartosc_umowy =</text><text fill="#000000" font-family="Arial" font-size="13" lengthAdjust="spacing" textLength="207.2383" x="1405.8511" y="880.3237">SUM(ilosc &#215; cena_jednostkowa)</text><rect fill="#E3F2FD" height="47.9375" rx="12.5" ry="12.5" style="stroke:#1565C0;stroke-width:0.5;" width="170.6387" x="1209.2124" y="836.7217"/><text fill="#000000" font-family="Arial" font-size="12" lengthAdjust="spacing" textLength="150.6387" x="1219.2124" y="857.8604">Automatyczne obliczenie</text><text fill="#000000" font-family="Arial" font-size="12" lengthAdjust="spacing" textLength="97.6992" x="1219.2124" y="871.8291">warto&#347;ci umowy</text><line style="stroke:#000000;stroke-width:1.5;" x1="1203.2124" x2="1203.2124" y1="50.042" y2="1343.0303"/><rect fill="#FCE4EC" height="1292.9883" style="stroke:#FCE4EC;stroke-width:1;" width="690.2617" x="1633.0894" y="50.042"/><polygon fill="#E3F2FD" points="1909.312,908.3896,2001.2866,908.3896,2013.2866,920.3896,2001.2866,932.3896,1909.312,932.3896,1897.312,920.3896,1909.312,908.3896" style="stroke:#1565C0;stroke-width:0.5;"/><text fill="#000000" font-family="Arial" font-size="12" lengthAdjust="spacing" textLength="91.9746" x="1909.312" y="924.5439">Status umowy?</text><rect fill="#E3F2FD" height="33.9688" rx="12.5" ry="12.5" style="stroke:#1565C0;stroke-width:0.5;" width="180.752" x="1639.0894" y="967.999"/><text fill="#000000" font-family="Arial" font-size="12" lengthAdjust="spacing" textLength="160.752" x="1649.0894" y="989.1377">Umowa w trakcie realizacji</text><rect fill="#E3F2FD" height="33.9688" rx="12.5" ry="12.5" style="stroke:#1565C0;stroke-width:0.5;" width="137.832" x="1829.8413" y="967.999"/><text fill="#000000" font-family="Arial" font-size="12" lengthAdjust="spacing" textLength="117.832" x="1839.8413" y="989.1377">Umowa zawieszona</text><rect fill="#E3F2FD" height="33.9688" rx="12.5" ry="12.5" style="stroke:#1565C0;stroke-width:0.5;" width="126.6348" x="1987.6733" y="967.999"/><text fill="#000000" font-family="Arial" font-size="12" lengthAdjust="spacing" textLength="106.6348" x="1997.6733" y="989.1377">Umowa odwo&#322;ana</text><ellipse cx="2050.9907" cy="1032.9678" fill="none" rx="11" ry="11" style="stroke:#222222;stroke-width:1;"/><ellipse cx="2050.9907" cy="1032.9678" fill="#222222" rx="6" ry="6" style="stroke:#222222;stroke-width:1;"/><rect fill="#E3F2FD" height="33.9688" rx="12.5" ry="12.5" style="stroke:#1565C0;stroke-width:0.5;" width="147.2012" x="2134.3081" y="967.999"/><text fill="#000000" font-family="Arial" font-size="12" lengthAdjust="spacing" textLength="127.2012" x="2144.3081" y="989.1377">Umowa zrealizowana</text><polygon fill="#E3F2FD" points="1955.2993,1063.9678,1955.2993,1063.9678,1967.2993,1075.9678,1955.2993,1087.9678,1955.2993,1087.9678,1943.2993,1075.9678,1955.2993,1063.9678" style="stroke:#1565C0;stroke-width:0.5;"/><path d="M2046.7583,1097.9678 L2046.7583,1121.667 L2026.7583,1125.667 L2046.7583,1129.667 L2046.7583,1153.3662 A0,0 0 0 0 2046.7583,1153.3662 L2318.3511,1153.3662 A0,0 0 0 0 2318.3511,1153.3662 L2318.3511,1107.9678 L2308.3511,1097.9678 L2046.7583,1097.9678 A0,0 0 0 0 2046.7583,1097.9678" fill="#FFFDE7" style="stroke:#FBC02D;stroke-width:0.5;"/><path d="M2308.3511,1097.9678 L2308.3511,1107.9678 L2318.3511,1107.9678 L2308.3511,1097.9678" fill="#FFFDE7" style="stroke:#FBC02D;stroke-width:0.5;"/><text fill="#000000" font-family="Arial" font-size="13" font-weight="bold" lengthAdjust="spacing" textLength="78.0254" x="2052.7583" y="1115.0347">Zdarzenie:</text><text fill="#000000" font-family="Arial" font-size="13" lengthAdjust="spacing" textLength="174.3193" x="2052.7583" y="1130.1675">&#8226; typ: telefon_po_dostawie</text><text fill="#000000" font-family="Arial" font-size="13" lengthAdjust="spacing" textLength="250.5928" x="2052.7583" y="1145.3003">&#8226; aby przeprowadzi&#263; ocen&#281; satysfakcji</text><rect fill="#E3F2FD" height="33.9688" rx="12.5" ry="12.5" style="stroke:#1565C0;stroke-width:0.5;" width="142.918" x="1883.8403" y="1108.6826"/><text fill="#000000" font-family="Arial" font-size="12" lengthAdjust="spacing" textLength="122.918" x="1893.8403" y="1129.8213">Kontakt po dostawie</text><line style="stroke:#000000;stroke-width:1.5;" x1="1633.0894" x2="1633.0894" y1="50.042" y2="1343.0303"/><rect fill="#F3E5F5" height="1292.9883" style="stroke:#F3E5F5;stroke-width:1;" width="1082.0762" x="2323.3511" y="50.042"/><rect fill="#555555" height="6" rx="2.5" ry="2.5" style="stroke:#555555;stroke-width:1;" width="1072.0762" x="2329.3511" y="1173.3662"/><path d="M2492.5093,1189.3662 L2492.5093,1228.1982 L2472.5093,1232.1982 L2492.5093,1236.1982 L2492.5093,1275.0303 A0,0 0 0 0 2492.5093,1275.0303 L2630.9155,1275.0303 A0,0 0 0 0 2630.9155,1275.0303 L2630.9155,1199.3662 L2620.9155,1189.3662 L2492.5093,1189.3662 A0,0 0 0 0 2492.5093,1189.3662" fill="#FFFDE7" style="stroke:#FBC02D;stroke-width:0.5;"/><path d="M2620.9155,1189.3662 L2620.9155,1199.3662 L2630.9155,1199.3662 L2620.9155,1189.3662" fill="#FFFDE7" style="stroke:#FBC02D;stroke-width:0.5;"/><text fill="#000000" font-family="Arial" font-size="13" font-weight="bold" lengthAdjust="spacing" textLength="79.7646" x="2498.5093" y="1206.4331">Statystyki:</text><text fill="#000000" font-family="Arial" font-size="13" lengthAdjust="spacing" textLength="117.4063" x="2498.5093" y="1221.5659">&#8226; liczba telefon&#243;w</text><text fill="#000000" font-family="Arial" font-size="13" lengthAdjust="spacing" textLength="87.2041" x="2498.5093" y="1236.6987">&#8226; liczba wizyt</text><text fill="#000000" font-family="Arial" font-size="13" lengthAdjust="spacing" textLength="92.8345" x="2498.5093" y="1251.8315">&#8226; liczba um&#243;w</text><text fill="#000000" font-family="Arial" font-size="13" lengthAdjust="spacing" textLength="106.1011" x="2498.5093" y="1266.9644">&#8226; suma warto&#347;ci</text><rect fill="#E3F2FD" height="47.9375" rx="12.5" ry="12.5" style="stroke:#1565C0;stroke-width:0.5;" width="131.1582" x="2341.3511" y="1208.2295"/><text fill="#000000" font-family="Arial" font-size="12" lengthAdjust="spacing" textLength="111.1582" x="2351.3511" y="1229.3682">Raport aktywno&#347;ci</text><text fill="#000000" font-family="Arial" font-size="12" lengthAdjust="spacing" textLength="93.3105" x="2351.3511" y="1243.3369">przedstawiciela</text><path d="M2774.1147,1196.9326 L2774.1147,1228.1982 L2754.1147,1232.1982 L2774.1147,1236.1982 L2774.1147,1267.4639 A0,0 0 0 0 2774.1147,1267.4639 L2934.6553,1267.4639 A0,0 0 0 0 2934.6553,1267.4639 L2934.6553,1206.9326 L2924.6553,1196.9326 L2774.1147,1196.9326 A0,0 0 0 0 2774.1147,1196.9326" fill="#FFFDE7" style="stroke:#FBC02D;stroke-width:0.5;"/><path d="M2924.6553,1196.9326 L2924.6553,1206.9326 L2934.6553,1206.9326 L2924.6553,1196.9326" fill="#FFFDE7" style="stroke:#FBC02D;stroke-width:0.5;"/><text fill="#000000" font-family="Arial" font-size="13" font-weight="bold" lengthAdjust="spacing" textLength="42.834" x="2780.1147" y="1213.9995">Dane:</text><text fill="#000000" font-family="Arial" font-size="13" lengthAdjust="spacing" textLength="104.7617" x="2780.1147" y="1229.1323">&#8226; suma obrot&#243;w</text><text fill="#000000" font-family="Arial" font-size="13" lengthAdjust="spacing" textLength="92.8345" x="2780.1147" y="1244.2651">&#8226; liczba um&#243;w</text><text fill="#000000" font-family="Arial" font-size="13" lengthAdjust="spacing" textLength="139.5405" x="2780.1147" y="1259.3979">&#8226; rozbicie miesi&#281;czne</text><rect fill="#E3F2FD" height="47.9375" rx="12.5" ry="12.5" style="stroke:#1565C0;stroke-width:0.5;" width="113.1992" x="2640.9155" y="1208.2295"/><text fill="#000000" font-family="Arial" font-size="12" lengthAdjust="spacing" textLength="93.1992" x="2650.9155" y="1229.3682">Raport obrot&#243;w</text><text fill="#000000" font-family="Arial" font-size="12" lengthAdjust="spacing" textLength="40.6641" x="2650.9155" y="1243.3369">klienta</text><path d="M3171.7451,1204.499 L3171.7451,1228.1982 L3151.7451,1232.1982 L3171.7451,1236.1982 L3171.7451,1259.8975 A0,0 0 0 0 3171.7451,1259.8975 L3389.4272,1259.8975 A0,0 0 0 0 3389.4272,1259.8975 L3389.4272,1214.499 L3379.4272,1204.499 L3171.7451,1204.499 A0,0 0 0 0 3171.7451,1204.499" fill="#FFFDE7" style="stroke:#FBC02D;stroke-width:0.5;"/><path d="M3379.4272,1204.499 L3379.4272,1214.499 L3389.4272,1214.499 L3379.4272,1204.499" fill="#FFFDE7" style="stroke:#FBC02D;stroke-width:0.5;"/><text fill="#000000" font-family="Arial" font-size="13" font-weight="bold" lengthAdjust="spacing" textLength="42.834" x="3177.7451" y="1221.5659">Dane:</text><text fill="#000000" font-family="Arial" font-size="13" lengthAdjust="spacing" textLength="142.3779" x="3177.7451" y="1236.6987">&#8226; harmonogram wizyt</text><text fill="#000000" font-family="Arial" font-size="13" lengthAdjust="spacing" textLength="196.6821" x="3177.7451" y="1251.8315">poszczeg&#243;lnych pracownik&#243;w;</text><rect fill="#E3F2FD" height="33.9688" rx="12.5" ry="12.5" style="stroke:#1565C0;stroke-width:0.5;" width="207.0898" x="2944.6553" y="1215.2139"/><text fill="#000000" font-family="Arial" font-size="12" lengthAdjust="spacing" textLength="187.0898" x="2954.6553" y="1236.3525">Harmonogramy przedstawicieli</text><rect fill="#555555" height="6" rx="2.5" ry="2.5" style="stroke:#555555;stroke-width:1;" width="1072.0762" x="2329.3511" y="1295.0303"/><ellipse cx="2865.3892" cy="1332.0303" fill="none" rx="11" ry="11" style="stroke:#222222;stroke-width:1;"/><ellipse cx="2865.3892" cy="1332.0303" fill="#222222" rx="6" ry="6" style="stroke:#222222;stroke-width:1;"/><line style="stroke:#000000;stroke-width:1.5;" x1="2323.3511" x2="2323.3511" y1="50.042" y2="1343.0303"/><line style="stroke:#000000;stroke-width:1.5;" x1="3405.4272" x2="3405.4272" y1="50.042" y2="1343.0303"/><line style="stroke:#181818;stroke-width:1;" x1="86.7227" x2="86.7227" y1="95.9951" y2="146.9756"/><polygon fill="#181818" points="82.7227,136.9756,86.7227,146.9756,90.7227,136.9756,86.7227,140.9756" style="stroke:#181818;stroke-width:1;"/><line style="stroke:#181818;stroke-width:1;" x1="699.0181" x2="699.0181" y1="329.5732" y2="413.2529"/><polygon fill="#181818" points="695.0181,403.2529,699.0181,413.2529,703.0181,403.2529,699.0181,407.2529" style="stroke:#181818;stroke-width:1;"/><line style="stroke:#181818;stroke-width:1;" x1="699.0181" x2="699.0181" y1="491.2217" y2="515.624"/><polygon fill="#181818" points="695.0181,505.624,699.0181,515.624,703.0181,505.624,699.0181,509.624" style="stroke:#181818;stroke-width:1;"/><line style="stroke:#181818;stroke-width:1;" x1="764.3179" x2="1294.5317" y1="479.2217" y2="479.2217"/><polygon fill="#181818" points="1290.5317,557.5986,1294.5317,567.5986,1298.5317,557.5986,1294.5317,561.5986" style="stroke:#181818;stroke-width:1;"/><line style="stroke:#181818;stroke-width:1;" x1="1294.5317" x2="1294.5317" y1="479.2217" y2="630.9756"/><polygon fill="#181818" points="1290.5317,620.9756,1294.5317,630.9756,1298.5317,620.9756,1294.5317,624.9756" style="stroke:#181818;stroke-width:1;"/><line style="stroke:#181818;stroke-width:1;" x1="699.0181" x2="699.0181" y1="447.2217" y2="467.2217"/><polygon fill="#181818" points="695.0181,457.2217,699.0181,467.2217,703.0181,457.2217,699.0181,461.2217" style="stroke:#181818;stroke-width:1;"/><line style="stroke:#181818;stroke-width:1;" x1="1294.5317" x2="1294.5317" y1="664.9443" y2="749.3389"/><polygon fill="#181818" points="1290.5317,739.3389,1294.5317,749.3389,1298.5317,739.3389,1294.5317,743.3389" style="stroke:#181818;stroke-width:1;"/><line style="stroke:#181818;stroke-width:1;" x1="1294.5317" x2="1294.5317" y1="783.3076" y2="836.7217"/><polygon fill="#181818" points="1290.5317,826.7217,1294.5317,836.7217,1298.5317,826.7217,1294.5317,830.7217" style="stroke:#181818;stroke-width:1;"/><line style="stroke:#181818;stroke-width:1;" x1="2050.9907" x2="2050.9907" y1="1001.9678" y2="1021.9678"/><polygon fill="#181818" points="2046.9907,1011.9678,2050.9907,1021.9678,2054.9907,1011.9678,2050.9907,1015.9678" style="stroke:#181818;stroke-width:1;"/><line style="stroke:#181818;stroke-width:1;" x1="1897.312" x2="1729.4653" y1="920.3896" y2="920.3896"/><line style="stroke:#181818;stroke-width:1;" x1="1729.4653" x2="1729.4653" y1="920.3896" y2="967.999"/><polygon fill="#181818" points="1725.4653,957.999,1729.4653,967.999,1733.4653,957.999,1729.4653,961.999" style="stroke:#181818;stroke-width:1;"/><text fill="#000000" font-family="Arial" font-size="11" lengthAdjust="spacing" textLength="47.4268" x="1729.4653" y="948.0024">Aktywna</text><line style="stroke:#181818;stroke-width:1;" x1="2013.2866" x2="2207.9087" y1="920.3896" y2="920.3896"/><line style="stroke:#181818;stroke-width:1;" x1="2207.9087" x2="2207.9087" y1="920.3896" y2="967.999"/><polygon fill="#181818" points="2203.9087,957.999,2207.9087,967.999,2211.9087,957.999,2207.9087,961.999" style="stroke:#181818;stroke-width:1;"/><text fill="#000000" font-family="Arial" font-size="11" lengthAdjust="spacing" textLength="66.6123" x="2207.9087" y="948.0024">Zako&#324;czona</text><line style="stroke:#181818;stroke-width:1;" x1="1955.2993" x2="1955.2993" y1="932.3896" y2="944.2594"/><line style="stroke:#181818;stroke-width:1;" x1="1955.2993" x2="1898.7573" y1="944.2594" y2="944.2594"/><line style="stroke:#181818;stroke-width:1;" x1="1898.7573" x2="1898.7573" y1="944.2594" y2="967.999"/><polygon fill="#181818" points="1894.7573,957.999,1898.7573,967.999,1902.7573,957.999,1898.7573,961.999" style="stroke:#181818;stroke-width:1;"/><text fill="#000000" font-family="Arial" font-size="11" lengthAdjust="spacing" textLength="68.895" x="1898.7573" y="949.0024">Wstrzymana</text><line style="stroke:#181818;stroke-width:1;" x1="2050.9907" x2="2050.9907" y1="920.3896" y2="967.999"/><polygon fill="#181818" points="2046.9907,957.999,2050.9907,967.999,2054.9907,957.999,2050.9907,961.999" style="stroke:#181818;stroke-width:1;"/><text fill="#000000" font-family="Arial" font-size="11" lengthAdjust="spacing" textLength="60.7041" x="2050.9907" y="943.0024">Anulowana</text><line style="stroke:#181818;stroke-width:1;" x1="1729.4653" x2="1729.4653" y1="1001.9678" y2="1075.9678"/><line style="stroke:#181818;stroke-width:1;" x1="1729.4653" x2="1943.2993" y1="1075.9678" y2="1075.9678"/><polygon fill="#181818" points="1933.2993,1071.9678,1943.2993,1075.9678,1933.2993,1079.9678,1937.2993,1075.9678" style="stroke:#181818;stroke-width:1;"/><line style="stroke:#181818;stroke-width:1;" x1="2207.9087" x2="2207.9087" y1="1001.9678" y2="1075.9678"/><line style="stroke:#181818;stroke-width:1;" x1="2207.9087" x2="1967.2993" y1="1075.9678" y2="1075.9678"/><polygon fill="#181818" points="1977.2993,1071.9678,1967.2993,1075.9678,1977.2993,1079.9678,1973.2993,1075.9678" style="stroke:#181818;stroke-width:1;"/><line style="stroke:#181818;stroke-width:1;" x1="1898.7573" x2="1898.7573" y1="1001.9678" y2="1048.9678"/><line style="stroke:#181818;stroke-width:1;" x1="1898.7573" x2="1955.2993" y1="1048.9678" y2="1048.9678"/><line style="stroke:#181818;stroke-width:1;" x1="1955.2993" x2="1955.2993" y1="1048.9678" y2="1063.9678"/><polygon fill="#181818" points="1951.2993,1053.9678,1955.2993,1063.9678,1959.2993,1053.9678,1955.2993,1057.9678" style="stroke:#181818;stroke-width:1;"/><line style="stroke:#181818;stroke-width:1;" x1="1955.2993" x2="1955.2993" y1="1087.9678" y2="1108.6826"/><polygon fill="#181818" points="1951.2993,1098.6826,1955.2993,1108.6826,1959.2993,1098.6826,1955.2993,1102.6826" style="stroke:#181818;stroke-width:1;"/><line style="stroke:#181818;stroke-width:1;" x1="2406.9302" x2="2406.9302" y1="1179.3662" y2="1208.2295"/><polygon fill="#181818" points="2402.9302,1198.2295,2406.9302,1208.2295,2410.9302,1198.2295,2406.9302,1202.2295" style="stroke:#181818;stroke-width:1;"/><line style="stroke:#181818;stroke-width:1;" x1="2697.5151" x2="2697.5151" y1="1179.3662" y2="1208.2295"/><polygon fill="#181818" points="2693.5151,1198.2295,2697.5151,1208.2295,2701.5151,1198.2295,2697.5151,1202.2295" style="stroke:#181818;stroke-width:1;"/><line style="stroke:#181818;stroke-width:1;" x1="3048.2002" x2="3048.2002" y1="1179.3662" y2="1215.2139"/><polygon fill="#181818" points="3044.2002,1205.2139,3048.2002,1215.2139,3052.2002,1205.2139,3048.2002,1209.2139" style="stroke:#181818;stroke-width:1;"/><line style="stroke:#181818;stroke-width:1;" x1="2406.9302" x2="2406.9302" y1="1256.167" y2="1295.0303"/><polygon fill="#181818" points="2402.9302,1285.0303,2406.9302,1295.0303,2410.9302,1285.0303,2406.9302,1289.0303" style="stroke:#181818;stroke-width:1;"/><line style="stroke:#181818;stroke-width:1;" x1="2697.5151" x2="2697.5151" y1="1256.167" y2="1295.0303"/><polygon fill="#181818" points="2693.5151,1285.0303,2697.5151,1295.0303,2701.5151,1285.0303,2697.5151,1289.0303" style="stroke:#181818;stroke-width:1;"/><line style="stroke:#181818;stroke-width:1;" x1="3048.2002" x2="3048.2002" y1="1249.1826" y2="1295.0303"/><polygon fill="#181818" points="3044.2002,1285.0303,3048.2002,1295.0303,3052.2002,1285.0303,3048.2002,1289.0303" style="stroke:#181818;stroke-width:1;"/><line style="stroke:#181818;stroke-width:1;" x1="2865.3892" x2="2865.3892" y1="1301.0303" y2="1321.0303"/><polygon fill="#181818" points="2861.3892,1311.0303,2865.3892,1321.0303,2869.3892,1311.0303,2865.3892,1315.0303" style="stroke:#181818;stroke-width:1;"/><line style="stroke:#181818;stroke-width:1;" x1="86.7227" x2="86.7227" y1="180.9443" y2="226.9248"/><line style="stroke:#181818;stroke-width:1;" x1="86.7227" x2="699.0181" y1="226.9248" y2="226.9248"/><line style="stroke:#181818;stroke-width:1;" x1="699.0181" x2="699.0181" y1="226.9248" y2="295.6045"/><polygon fill="#181818" points="695.0181,285.6045,699.0181,295.6045,703.0181,285.6045,699.0181,289.6045" style="stroke:#181818;stroke-width:1;"/><line style="stroke:#181818;stroke-width:1;" x1="1294.5317" x2="1294.5317" y1="884.6592" y2="893.3896"/><line style="stroke:#181818;stroke-width:1;" x1="1294.5317" x2="1955.2993" y1="893.3896" y2="893.3896"/><line style="stroke:#181818;stroke-width:1;" x1="1955.2993" x2="1955.2993" y1="893.3896" y2="908.3896"/><polygon fill="#181818" points="1951.2993,898.3896,1955.2993,908.3896,1959.2993,898.3896,1955.2993,902.3896" style="stroke:#181818;stroke-width:1;"/><line style="stroke:#181818;stroke-width:1;" x1="1955.2993" x2="1955.2993" y1="1142.6514" y2="1158.3662"/><line style="stroke:#181818;stroke-width:1;" x1="1955.2993" x2="2865.3892" y1="1158.3662" y2="1158.3662"/><line style="stroke:#181818;stroke-width:1;" x1="2865.3892" x2="2865.3892" y1="1158.3662" y2="1173.3662"/><polygon fill="#181818" points="2861.3892,1163.3662,2865.3892,1173.3662,2869.3892,1163.3662,2865.3892,1167.3662" style="stroke:#181818;stroke-width:1;"/><text fill="#000000" font-family="Arial" font-size="18" lengthAdjust="spacing" textLength="167.001" x="232.9202" y="66.75">Pozyskanie klienta</text><text fill="#000000" font-family="Arial" font-size="18" lengthAdjust="spacing" textLength="169.2598" x="825.897" y="66.75">Kontakt z klientem</text><text fill="#000000" font-family="Arial" font-size="18" lengthAdjust="spacing" textLength="163.1865" x="1336.5576" y="66.75">Tworzenie umowy</text><text fill="#000000" font-family="Arial" font-size="18" lengthAdjust="spacing" textLength="91.0195" x="1932.7104" y="66.75">Realizacja</text><text fill="#000000" font-family="Arial" font-size="18" lengthAdjust="spacing" textLength="124.6816" x="2802.0483" y="66.75">Raportowanie</text><!--SRC=[dLPRRkCs5FtFAWZqnmvSE9FKVJWO339-e4NRWTjCK61-Z6k9jcb9l099ZI3L1GQ30jr0WMBGlsvXbf1a8rr9BwcN9ISfMiTmA5wIzvnp7vGEX8n1GSHMu0KRXOdq9nYYOf_CP_RlX35Thz5Ry34LSiFM46hUilby3KbevYZDAuWukr82mjOAy8nuAqp6VgPf-tdPTJcxc9_FfvKLbSzLQNas-dmqEIijriUro3bxTauplxISI3JySGVp-Nmw- -8X1_ENaxFpgJkEVemm8MSBXHxN35Vw_dso4ImWlme2S_inPNdvjENIG2Jifds9VyyMc6Sw02au2q9XLx2zHMb06Ve__f7lkARDtWwg1PSqxx0hiTaQX_3qT0goFc5yUkfc_txt5vEGfx1S2nLbzTohRnRr67n5k7j9A3mOCAa61DOVi4Y0DjYlbw765JWUH0fJO3t3Gxv6EM0y0X4Ec8W47pXtGWSui0makd5p2isPH8zPh537F333T6bLyWGVbaBJwLagio7fKGtVYfYCNFgETA4U1UTYThPdtnQ0hCIEEe-SUkD5Q9qxLNCVLCwbU4AsUicXS2QBnwmaEKn5dXaOhZ4CCVqqYIkufNqPuz97OfSI4ybJ7N9ZkEhmRlomNWvn2P54Gp_5-_Tkc2iEeSYTeT7D1mFBQWCqGOc5RWADv2GGzNDChdm7YUGDbyAlBOLKXpD2aWeOUpkK4D8mnf0m9X6v6pZdh815MIZwdM1GXfOcEDIQB6BDUjSTvY_wp50Ta00TefoQ1ElLIXJSnmiaoXPG7SzBP_2v0MzR817higA-d8zcN-tPwnITByuiWQn8Y1lJddqy6PpvA16eNv3_uOxx4XLOsEtWeDz-zf78r8Bsdz3-yJXLrNBb2W6wka_HTmaUKmUXkFmRhtBP8JCgGpy9sfaGulsVTx_LpnwNi7IijGbgrh-_-nzVjpMbjkOyiEULBtRxXtFJvNUL68p0P5vkatD53Sh5xwG-n7kAysjws735hd_uhgBijcblMQJ5SpTtVVDzZt1ehq9nIBP_t7Sciyzcapqxo7dNhLDXl6sTxSx12xlR0vlLPG3BdBwncSHILdQ-WzAwh7VyH2q_poBeRCfjWz4v9LMpz4eceMiBhPLL8K5HBzJButh76mZm_bVF7jC-lIb9juse5yHSEAfM6oEhMjs3mhyfIvq_ramFcsLp3QqoLmcKaYdukQ2qe0jLtdrWcb90hqcgdJWEnyLiD1zHE216PSg6RmEoHXKKr0fJUQ-uf77pxQehLUfmiMniH3Djig0kd0AlpKQw44jATCiVszoTSJoTHEtLEecWoMXdg4aMH1XiGCWM7LmfDDKv1wy53tAmvTz6xtospdWIei9yPNMYjmAknTq7Mv5TeCTGlmOLKVlUKElCEdgB_u1rsnpJaZH6dLD7sDn-36L6nHVJEnBT5I8Wx9TTT7ReSkAag8L_0000]--></g></svg>